<?xml version="1.0" encoding="utf-8"?>
<!-- Generator: Adobe Illustrator 16.0.3, SVG Export Plug-In . SVG Version: 6.00 Build 0)  -->
<!DOCTYPE svg PUBLIC "-//W3C//DTD SVG 1.1//EN" "http://www.w3.org/Graphics/SVG/1.1/DTD/svg11.dtd">
<svg version="1.1" id="Layer_1" xmlns="http://www.w3.org/2000/svg" xmlns:xlink="http://www.w3.org/1999/xlink" x="0px" y="0px"
	 width="600px" height="600px" viewBox="0 0 600 600" enable-background="new 0 0 600 600" xml:space="preserve">
<g>
	<defs>
		<rect id="SVGID_1_" y="0" width="600" height="600"/>
	</defs>
	<clipPath id="SVGID_2_">
		<use xlink:href="#SVGID_1_"  overflow="visible"/>
	</clipPath>
	<g clip-path="url(#SVGID_2_)">
		<path fill="#B1E0B1" d="M216.865,492.176c4.468-4.469,4.468-11.779,0-16.248L43.012,302.076c-4.468-4.469-11.78-4.469-16.248,0
			l-173.853,173.852c-4.468,4.469-4.468,11.781,0,16.248L26.764,666.029c4.468,4.467,11.78,4.467,16.248,0L216.865,492.176z"/>
		<path fill="none" stroke="#604D55" stroke-width="5" stroke-miterlimit="10" d="M216.865,492.176
			c4.468-4.469,4.468-11.779,0-16.248L43.012,302.076c-4.468-4.469-11.78-4.469-16.248,0l-173.853,173.852
			c-4.468,4.469-4.468,11.781,0,16.248L26.764,666.029c4.468,4.467,11.78,4.467,16.248,0L216.865,492.176z"/>
	</g>
	<g clip-path="url(#SVGID_2_)">
		<path fill="#B1E0B1" d="M787.951,476.225c4.468-4.467,4.468-11.779,0-16.248L549.919,221.945c-4.468-4.468-11.78-4.468-16.248,0
			L295.639,459.977c-4.468,4.469-4.468,11.781,0,16.248l238.032,238.033c4.468,4.469,11.78,4.469,16.248,0L787.951,476.225z"/>
		<path fill="none" stroke="#604D55" stroke-width="5" stroke-miterlimit="10" d="M787.951,476.225
			c4.468-4.467,4.468-11.779,0-16.248L549.919,221.945c-4.468-4.468-11.78-4.468-16.248,0L295.639,459.977
			c-4.468,4.469-4.468,11.781,0,16.248l238.032,238.033c4.468,4.469,11.78,4.469,16.248,0L787.951,476.225z"/>
	</g>
	<g clip-path="url(#SVGID_2_)">
		<path fill="#B1E0B1" d="M317.691,524.023c4.469-4.469,4.469-11.779,0-16.248l-149.48-149.48c-4.468-4.469-11.78-4.469-16.248,0
			L2.481,507.775c-4.468,4.469-4.468,11.781,0,16.248l149.481,149.482c4.468,4.467,11.78,4.467,16.248,0L317.691,524.023z"/>
		<path fill="none" stroke="#604D55" stroke-width="5" stroke-miterlimit="10" d="M317.691,524.023
			c4.469-4.469,4.469-11.779,0-16.248l-149.48-149.48c-4.468-4.469-11.78-4.469-16.248,0L2.481,507.775
			c-4.468,4.469-4.468,11.781,0,16.248l149.481,149.482c4.468,4.467,11.78,4.467,16.248,0L317.691,524.023z"/>
	</g>
	<rect x="-34.333" y="442" clip-path="url(#SVGID_2_)" fill="#5CBF65" width="672.666" height="158"/>
	
		<line clip-path="url(#SVGID_2_)" fill="none" stroke="#6B5961" stroke-width="5.9613" stroke-miterlimit="10" x1="-34.333" y1="442" x2="638.333" y2="442"/>
</g>
<g>
	<defs>
		<rect id="SVGID_3_" x="668" y="0" width="600" height="600"/>
	</defs>
	<clipPath id="SVGID_4_">
		<use xlink:href="#SVGID_3_"  overflow="visible"/>
	</clipPath>
	<g clip-path="url(#SVGID_4_)">
		<path fill="#72948C" d="M884.934,492.176c4.469-4.469,4.469-11.779,0-16.248L711.08,302.076c-4.469-4.469-11.779-4.469-16.248,0
			L520.98,475.928c-4.469,4.469-4.469,11.779,0,16.248l173.852,173.854c4.469,4.467,11.779,4.469,16.248,0L884.934,492.176z"/>
		<path fill="none" stroke="#604D55" stroke-width="5" stroke-miterlimit="10" d="M884.934,492.176
			c4.469-4.469,4.469-11.779,0-16.248L711.08,302.076c-4.469-4.469-11.779-4.469-16.248,0L520.98,475.928
			c-4.469,4.469-4.469,11.779,0,16.248l173.852,173.854c4.469,4.467,11.779,4.469,16.248,0L884.934,492.176z"/>
	</g>
</g>
</svg>
